<mxfile host="app.diagrams.net" modified="2021-08-02T06:22:13.150Z" agent="5.0 (X11)" etag="KZJLW6qKiasYSL6AAe7T" version="14.9.2" type="github">
  <diagram id="9jheEHDDxWndXmeWKkwG" name="Page-1">
    <mxGraphModel dx="1673" dy="840" grid="1" gridSize="10" guides="1" tooltips="1" connect="1" arrows="1" fold="1" page="1" pageScale="1" pageWidth="1169" pageHeight="827" math="0" shadow="0">
      <root>
        <mxCell id="0" />
        <mxCell id="1" parent="0" />
        <mxCell id="J9gdxeYjHLM6oxPjCNeX-1" value="&lt;div&gt;SSR&lt;/div&gt;&lt;div&gt;40A&lt;br&gt;&lt;/div&gt;" style="whiteSpace=wrap;html=1;aspect=fixed;" vertex="1" parent="1">
          <mxGeometry x="760" y="720" width="80" height="80" as="geometry" />
        </mxCell>
        <mxCell id="J9gdxeYjHLM6oxPjCNeX-32" value="&lt;div&gt;220V&lt;/div&gt;" style="edgeLabel;html=1;align=center;verticalAlign=middle;resizable=0;points=[];rotation=0;" vertex="1" connectable="0" parent="1">
          <mxGeometry x="60.00294117647047" y="50" as="geometry">
            <mxPoint x="23" y="2.0000000000000013" as="offset" />
          </mxGeometry>
        </mxCell>
        <mxCell id="J9gdxeYjHLM6oxPjCNeX-36" value="" style="verticalLabelPosition=bottom;verticalAlign=top;html=1;shape=mxgraph.flowchart.or;" vertex="1" parent="1">
          <mxGeometry x="880" y="725" width="70" height="70" as="geometry" />
        </mxCell>
        <mxCell id="J9gdxeYjHLM6oxPjCNeX-37" value="&lt;div&gt;&lt;br&gt;&lt;/div&gt;&lt;div&gt;&lt;br&gt;&lt;/div&gt;&lt;div&gt;&lt;br&gt;&lt;/div&gt;&lt;div&gt;АВТОМАТ&lt;/div&gt;&lt;div&gt;40А&lt;br&gt;&lt;/div&gt;" style="whiteSpace=wrap;html=1;aspect=fixed;" vertex="1" parent="1">
          <mxGeometry x="40" y="230" width="80" height="80" as="geometry" />
        </mxCell>
        <mxCell id="J9gdxeYjHLM6oxPjCNeX-38" value="" style="endArrow=none;html=1;" edge="1" parent="1">
          <mxGeometry width="50" height="50" relative="1" as="geometry">
            <mxPoint x="50" y="268" as="sourcePoint" />
            <mxPoint x="90" y="250" as="targetPoint" />
            <Array as="points">
              <mxPoint x="70" y="268" />
            </Array>
          </mxGeometry>
        </mxCell>
        <mxCell id="J9gdxeYjHLM6oxPjCNeX-39" value="" style="endArrow=none;html=1;" edge="1" parent="1">
          <mxGeometry width="50" height="50" relative="1" as="geometry">
            <mxPoint x="90" y="268" as="sourcePoint" />
            <mxPoint x="110" y="268" as="targetPoint" />
            <Array as="points" />
          </mxGeometry>
        </mxCell>
        <mxCell id="J9gdxeYjHLM6oxPjCNeX-43" value="&lt;div&gt;БЛОК ПИТАНИЯ 12V + 5V&lt;/div&gt;" style="whiteSpace=wrap;html=1;aspect=fixed;" vertex="1" parent="1">
          <mxGeometry x="160" y="230" width="80" height="80" as="geometry" />
        </mxCell>
        <mxCell id="J9gdxeYjHLM6oxPjCNeX-44" value="&lt;div&gt;&lt;br&gt;&lt;/div&gt;&lt;div&gt;&lt;br&gt;&lt;/div&gt;&lt;div&gt;РАЗЪЕМ&lt;/div&gt;&lt;div&gt;&lt;br&gt;&lt;/div&gt;&lt;div&gt;&lt;br&gt;&lt;/div&gt;&lt;div&gt;&lt;br&gt;&lt;/div&gt;&lt;div&gt;&lt;br&gt;&lt;/div&gt;" style="whiteSpace=wrap;html=1;aspect=fixed;" vertex="1" parent="1">
          <mxGeometry x="760" y="158.82" width="80" height="80" as="geometry" />
        </mxCell>
        <mxCell id="J9gdxeYjHLM6oxPjCNeX-45" value="" style="endArrow=none;html=1;" edge="1" parent="1">
          <mxGeometry width="50" height="50" relative="1" as="geometry">
            <mxPoint x="770" y="220.82" as="sourcePoint" />
            <mxPoint x="810" y="202.82" as="targetPoint" />
            <Array as="points">
              <mxPoint x="790" y="220.82" />
            </Array>
          </mxGeometry>
        </mxCell>
        <mxCell id="J9gdxeYjHLM6oxPjCNeX-46" value="" style="endArrow=none;html=1;" edge="1" parent="1">
          <mxGeometry width="50" height="50" relative="1" as="geometry">
            <mxPoint x="810" y="218.82" as="sourcePoint" />
            <mxPoint x="830" y="218.82" as="targetPoint" />
            <Array as="points" />
          </mxGeometry>
        </mxCell>
        <mxCell id="J9gdxeYjHLM6oxPjCNeX-54" value="" style="endArrow=classic;html=1;exitX=1;exitY=0.5;exitDx=0;exitDy=0;entryX=0;entryY=0.5;entryDx=0;entryDy=0;entryPerimeter=0;" edge="1" parent="1" source="J9gdxeYjHLM6oxPjCNeX-1" target="J9gdxeYjHLM6oxPjCNeX-36">
          <mxGeometry width="50" height="50" relative="1" as="geometry">
            <mxPoint x="550" y="440" as="sourcePoint" />
            <mxPoint x="600" y="390" as="targetPoint" />
          </mxGeometry>
        </mxCell>
        <mxCell id="J9gdxeYjHLM6oxPjCNeX-55" value="" style="endArrow=classic;html=1;exitX=1;exitY=0.5;exitDx=0;exitDy=0;exitPerimeter=0;" edge="1" parent="1" source="J9gdxeYjHLM6oxPjCNeX-36">
          <mxGeometry width="50" height="50" relative="1" as="geometry">
            <mxPoint x="550" y="440" as="sourcePoint" />
            <mxPoint x="1040" y="760" as="targetPoint" />
          </mxGeometry>
        </mxCell>
        <mxCell id="J9gdxeYjHLM6oxPjCNeX-56" value="&lt;div&gt;SSR&lt;/div&gt;&lt;div&gt;100A&lt;br&gt;&lt;/div&gt;" style="whiteSpace=wrap;html=1;aspect=fixed;" vertex="1" parent="1">
          <mxGeometry x="670" y="630" width="80" height="80" as="geometry" />
        </mxCell>
        <mxCell id="J9gdxeYjHLM6oxPjCNeX-57" value="" style="verticalLabelPosition=bottom;verticalAlign=top;html=1;shape=mxgraph.flowchart.or;" vertex="1" parent="1">
          <mxGeometry x="790" y="635" width="70" height="70" as="geometry" />
        </mxCell>
        <mxCell id="J9gdxeYjHLM6oxPjCNeX-58" value="" style="endArrow=classic;html=1;exitX=1;exitY=0.5;exitDx=0;exitDy=0;entryX=0;entryY=0.5;entryDx=0;entryDy=0;entryPerimeter=0;" edge="1" parent="1" source="J9gdxeYjHLM6oxPjCNeX-56" target="J9gdxeYjHLM6oxPjCNeX-57">
          <mxGeometry width="50" height="50" relative="1" as="geometry">
            <mxPoint x="460" y="350" as="sourcePoint" />
            <mxPoint x="510" y="300" as="targetPoint" />
          </mxGeometry>
        </mxCell>
        <mxCell id="J9gdxeYjHLM6oxPjCNeX-59" value="" style="endArrow=classic;html=1;exitX=1;exitY=0.5;exitDx=0;exitDy=0;exitPerimeter=0;" edge="1" parent="1" source="J9gdxeYjHLM6oxPjCNeX-57">
          <mxGeometry width="50" height="50" relative="1" as="geometry">
            <mxPoint x="460" y="350" as="sourcePoint" />
            <mxPoint x="1040" y="670" as="targetPoint" />
          </mxGeometry>
        </mxCell>
        <mxCell id="J9gdxeYjHLM6oxPjCNeX-60" value="&lt;div&gt;SSR&lt;/div&gt;&lt;div&gt;100A&lt;br&gt;&lt;/div&gt;" style="whiteSpace=wrap;html=1;aspect=fixed;" vertex="1" parent="1">
          <mxGeometry x="585" y="540" width="80" height="80" as="geometry" />
        </mxCell>
        <mxCell id="J9gdxeYjHLM6oxPjCNeX-61" value="" style="verticalLabelPosition=bottom;verticalAlign=top;html=1;shape=mxgraph.flowchart.or;" vertex="1" parent="1">
          <mxGeometry x="705" y="545" width="70" height="70" as="geometry" />
        </mxCell>
        <mxCell id="J9gdxeYjHLM6oxPjCNeX-62" value="" style="endArrow=classic;html=1;exitX=1;exitY=0.5;exitDx=0;exitDy=0;entryX=0;entryY=0.5;entryDx=0;entryDy=0;entryPerimeter=0;" edge="1" parent="1" source="J9gdxeYjHLM6oxPjCNeX-60" target="J9gdxeYjHLM6oxPjCNeX-61">
          <mxGeometry width="50" height="50" relative="1" as="geometry">
            <mxPoint x="375" y="260" as="sourcePoint" />
            <mxPoint x="425" y="210" as="targetPoint" />
          </mxGeometry>
        </mxCell>
        <mxCell id="J9gdxeYjHLM6oxPjCNeX-63" value="" style="endArrow=classic;html=1;exitX=1;exitY=0.5;exitDx=0;exitDy=0;exitPerimeter=0;" edge="1" parent="1" source="J9gdxeYjHLM6oxPjCNeX-61">
          <mxGeometry width="50" height="50" relative="1" as="geometry">
            <mxPoint x="375" y="260" as="sourcePoint" />
            <mxPoint x="1040" y="580" as="targetPoint" />
          </mxGeometry>
        </mxCell>
        <mxCell id="J9gdxeYjHLM6oxPjCNeX-64" value="&lt;div&gt;SSR&lt;/div&gt;&lt;div&gt;100A&lt;br&gt;&lt;/div&gt;" style="whiteSpace=wrap;html=1;aspect=fixed;" vertex="1" parent="1">
          <mxGeometry x="500" y="450" width="80" height="80" as="geometry" />
        </mxCell>
        <mxCell id="J9gdxeYjHLM6oxPjCNeX-65" value="" style="verticalLabelPosition=bottom;verticalAlign=top;html=1;shape=mxgraph.flowchart.or;" vertex="1" parent="1">
          <mxGeometry x="620" y="455" width="70" height="70" as="geometry" />
        </mxCell>
        <mxCell id="J9gdxeYjHLM6oxPjCNeX-66" value="" style="endArrow=classic;html=1;exitX=1;exitY=0.5;exitDx=0;exitDy=0;entryX=0;entryY=0.5;entryDx=0;entryDy=0;entryPerimeter=0;" edge="1" parent="1" source="J9gdxeYjHLM6oxPjCNeX-64" target="J9gdxeYjHLM6oxPjCNeX-65">
          <mxGeometry width="50" height="50" relative="1" as="geometry">
            <mxPoint x="290" y="170" as="sourcePoint" />
            <mxPoint x="340" y="120" as="targetPoint" />
          </mxGeometry>
        </mxCell>
        <mxCell id="J9gdxeYjHLM6oxPjCNeX-67" value="" style="endArrow=classic;html=1;exitX=1;exitY=0.5;exitDx=0;exitDy=0;exitPerimeter=0;" edge="1" parent="1" source="J9gdxeYjHLM6oxPjCNeX-65">
          <mxGeometry width="50" height="50" relative="1" as="geometry">
            <mxPoint x="290" y="170" as="sourcePoint" />
            <mxPoint x="1040" y="490" as="targetPoint" />
          </mxGeometry>
        </mxCell>
        <mxCell id="J9gdxeYjHLM6oxPjCNeX-68" value="&lt;div&gt;SSR&lt;/div&gt;&lt;div&gt;2A&lt;br&gt;&lt;/div&gt;" style="whiteSpace=wrap;html=1;aspect=fixed;" vertex="1" parent="1">
          <mxGeometry x="410" y="360" width="80" height="80" as="geometry" />
        </mxCell>
        <mxCell id="J9gdxeYjHLM6oxPjCNeX-69" value="" style="verticalLabelPosition=bottom;verticalAlign=top;html=1;shape=mxgraph.flowchart.or;" vertex="1" parent="1">
          <mxGeometry x="530" y="365" width="70" height="70" as="geometry" />
        </mxCell>
        <mxCell id="J9gdxeYjHLM6oxPjCNeX-70" value="" style="endArrow=classic;html=1;exitX=1;exitY=0.5;exitDx=0;exitDy=0;entryX=0;entryY=0.5;entryDx=0;entryDy=0;entryPerimeter=0;" edge="1" parent="1" source="J9gdxeYjHLM6oxPjCNeX-68" target="J9gdxeYjHLM6oxPjCNeX-69">
          <mxGeometry width="50" height="50" relative="1" as="geometry">
            <mxPoint x="200" y="80" as="sourcePoint" />
            <mxPoint x="250" y="30" as="targetPoint" />
          </mxGeometry>
        </mxCell>
        <mxCell id="J9gdxeYjHLM6oxPjCNeX-71" value="" style="endArrow=classic;html=1;exitX=1;exitY=0.5;exitDx=0;exitDy=0;exitPerimeter=0;entryX=0;entryY=0.5;entryDx=0;entryDy=0;" edge="1" parent="1" source="J9gdxeYjHLM6oxPjCNeX-69" target="J9gdxeYjHLM6oxPjCNeX-72">
          <mxGeometry width="50" height="50" relative="1" as="geometry">
            <mxPoint x="200" y="80" as="sourcePoint" />
            <mxPoint x="689.9999999999995" y="400" as="targetPoint" />
          </mxGeometry>
        </mxCell>
        <mxCell id="J9gdxeYjHLM6oxPjCNeX-72" value="&lt;div&gt;NE555&lt;/div&gt;&lt;div&gt;+&lt;/div&gt;&lt;div&gt;MOSFET&lt;/div&gt;" style="whiteSpace=wrap;html=1;aspect=fixed;" vertex="1" parent="1">
          <mxGeometry x="760" y="360" width="80" height="80" as="geometry" />
        </mxCell>
        <mxCell id="J9gdxeYjHLM6oxPjCNeX-73" value="&lt;div&gt;&lt;font style=&quot;font-size: 14px&quot;&gt;В.В. Тр-р&lt;/font&gt;&lt;/div&gt;&lt;div&gt;&lt;font style=&quot;font-size: 14px&quot;&gt;+&lt;/font&gt;&lt;/div&gt;&lt;div&gt;&lt;font style=&quot;font-size: 14px&quot;&gt;&lt;/font&gt;Конденсатор&lt;/div&gt;" style="whiteSpace=wrap;html=1;aspect=fixed;" vertex="1" parent="1">
          <mxGeometry x="880" y="360" width="80" height="80" as="geometry" />
        </mxCell>
        <mxCell id="J9gdxeYjHLM6oxPjCNeX-74" value="`" style="endArrow=classic;html=1;entryX=0;entryY=0.5;entryDx=0;entryDy=0;exitX=1;exitY=0.5;exitDx=0;exitDy=0;" edge="1" parent="1" source="J9gdxeYjHLM6oxPjCNeX-72">
          <mxGeometry width="50" height="50" relative="1" as="geometry">
            <mxPoint x="800" y="399.40999999999985" as="sourcePoint" />
            <mxPoint x="880" y="400" as="targetPoint" />
          </mxGeometry>
        </mxCell>
        <mxCell id="J9gdxeYjHLM6oxPjCNeX-75" value="`" style="endArrow=classic;html=1;entryX=0;entryY=0.5;entryDx=0;entryDy=0;" edge="1" parent="1">
          <mxGeometry width="50" height="50" relative="1" as="geometry">
            <mxPoint x="959.9999999999995" y="399.40999999999985" as="sourcePoint" />
            <mxPoint x="1039.9999999999995" y="400" as="targetPoint" />
          </mxGeometry>
        </mxCell>
        <mxCell id="J9gdxeYjHLM6oxPjCNeX-76" value="&lt;font style=&quot;font-size: 30px&quot;&gt;40 KV&lt;/font&gt;" style="text;html=1;strokeColor=none;fillColor=none;align=center;verticalAlign=middle;whiteSpace=wrap;rounded=0;" vertex="1" parent="1">
          <mxGeometry x="1040" y="360" width="120" height="80" as="geometry" />
        </mxCell>
        <mxCell id="J9gdxeYjHLM6oxPjCNeX-77" value="&lt;div&gt;MOSFET&lt;/div&gt;" style="whiteSpace=wrap;html=1;aspect=fixed;" vertex="1" parent="1">
          <mxGeometry x="760" y="260" width="80" height="80" as="geometry" />
        </mxCell>
        <mxCell id="J9gdxeYjHLM6oxPjCNeX-78" value="&lt;font style=&quot;font-size: 12px&quot;&gt;&amp;nbsp;К УЛИТКЕ ДЫМОГЕНЕРАТОРА&lt;/font&gt;" style="text;html=1;strokeColor=none;fillColor=none;align=center;verticalAlign=middle;whiteSpace=wrap;rounded=0;" vertex="1" parent="1">
          <mxGeometry x="1040" y="270" width="120" height="80" as="geometry" />
        </mxCell>
        <mxCell id="J9gdxeYjHLM6oxPjCNeX-80" value="2-й ТЭН В КАМЕРЕ 2,5 КВт" style="text;html=1;strokeColor=none;fillColor=none;align=center;verticalAlign=middle;whiteSpace=wrap;rounded=0;" vertex="1" parent="1">
          <mxGeometry x="1040" y="540" width="120" height="80" as="geometry" />
        </mxCell>
        <mxCell id="J9gdxeYjHLM6oxPjCNeX-81" value="1-й ТЭН В КАМЕРЕ 2,5КВт" style="text;html=1;strokeColor=none;fillColor=none;align=center;verticalAlign=middle;whiteSpace=wrap;rounded=0;" vertex="1" parent="1">
          <mxGeometry x="1040" y="450" width="120" height="80" as="geometry" />
        </mxCell>
        <mxCell id="J9gdxeYjHLM6oxPjCNeX-82" value="КОНВЕКТОРЫ" style="text;html=1;strokeColor=none;fillColor=none;align=center;verticalAlign=middle;whiteSpace=wrap;rounded=0;" vertex="1" parent="1">
          <mxGeometry x="1040" y="720" width="120" height="80" as="geometry" />
        </mxCell>
        <mxCell id="J9gdxeYjHLM6oxPjCNeX-83" value="ТЭН ПАРОГЕНЕРАТОРА 2 КВт" style="text;html=1;strokeColor=none;fillColor=none;align=center;verticalAlign=middle;whiteSpace=wrap;rounded=0;" vertex="1" parent="1">
          <mxGeometry x="1040" y="630" width="120" height="80" as="geometry" />
        </mxCell>
        <mxCell id="J9gdxeYjHLM6oxPjCNeX-84" value="&lt;div&gt;&lt;font style=&quot;font-size: 12px&quot;&gt;ДАТЧИК ТЕМПЕРАТУРЫ В ПРОДУКТ (ЩУП)&lt;/font&gt;&lt;/div&gt;NTC 100k" style="text;html=1;strokeColor=none;fillColor=none;align=center;verticalAlign=middle;whiteSpace=wrap;rounded=0;" vertex="1" parent="1">
          <mxGeometry x="1040" y="158.82" width="120" height="80" as="geometry" />
        </mxCell>
        <mxCell id="J9gdxeYjHLM6oxPjCNeX-85" value="&lt;div&gt;ДАТЧИК ТЕМПЕРАТУРЫ В КАМЕРЕ&lt;/div&gt;&lt;div&gt;DS18D20&lt;br&gt;&lt;/div&gt;" style="text;html=1;strokeColor=none;fillColor=none;align=center;verticalAlign=middle;whiteSpace=wrap;rounded=0;" vertex="1" parent="1">
          <mxGeometry x="1040" y="90" width="120" height="80" as="geometry" />
        </mxCell>
        <mxCell id="J9gdxeYjHLM6oxPjCNeX-86" value="`" style="endArrow=classic;html=1;entryX=0;entryY=0.25;entryDx=0;entryDy=0;exitX=1;exitY=0.25;exitDx=0;exitDy=0;" edge="1" parent="1" source="J9gdxeYjHLM6oxPjCNeX-44" target="J9gdxeYjHLM6oxPjCNeX-84">
          <mxGeometry width="50" height="50" relative="1" as="geometry">
            <mxPoint x="809.9999999999995" y="98.82" as="sourcePoint" />
            <mxPoint x="1009.9999999999995" y="99.37999999999994" as="targetPoint" />
          </mxGeometry>
        </mxCell>
        <mxCell id="J9gdxeYjHLM6oxPjCNeX-87" value="" style="endArrow=none;html=1;" edge="1" parent="1">
          <mxGeometry width="50" height="50" relative="1" as="geometry">
            <mxPoint x="843" y="220" as="sourcePoint" />
            <mxPoint x="890" y="250" as="targetPoint" />
            <Array as="points">
              <mxPoint x="890" y="220" />
            </Array>
          </mxGeometry>
        </mxCell>
        <mxCell id="J9gdxeYjHLM6oxPjCNeX-88" value="" style="endArrow=none;html=1;" edge="1" parent="1">
          <mxGeometry width="50" height="50" relative="1" as="geometry">
            <mxPoint x="870" y="250" as="sourcePoint" />
            <mxPoint x="910" y="250" as="targetPoint" />
          </mxGeometry>
        </mxCell>
        <mxCell id="J9gdxeYjHLM6oxPjCNeX-99" value="&lt;font style=&quot;font-size: 20px&quot;&gt;ATmega2560&lt;/font&gt;" style="whiteSpace=wrap;html=1;aspect=fixed;" vertex="1" parent="1">
          <mxGeometry x="320" y="30" width="200" height="200" as="geometry" />
        </mxCell>
        <mxCell id="J9gdxeYjHLM6oxPjCNeX-100" value="`" style="endArrow=classic;html=1;entryX=0;entryY=0.5;entryDx=0;entryDy=0;startArrow=none;" edge="1" parent="1" source="J9gdxeYjHLM6oxPjCNeX-158" target="J9gdxeYjHLM6oxPjCNeX-85">
          <mxGeometry width="50" height="50" relative="1" as="geometry">
            <mxPoint x="522" y="130" as="sourcePoint" />
            <mxPoint x="1029.9999999999995" y="109.99999999999994" as="targetPoint" />
          </mxGeometry>
        </mxCell>
        <mxCell id="J9gdxeYjHLM6oxPjCNeX-102" value="`" style="endArrow=classic;html=1;entryX=0;entryY=0.5;entryDx=0;entryDy=0;exitX=1.023;exitY=0.115;exitDx=0;exitDy=0;exitPerimeter=0;" edge="1" parent="1" source="J9gdxeYjHLM6oxPjCNeX-99">
          <mxGeometry width="50" height="50" relative="1" as="geometry">
            <mxPoint x="839.9999999999995" y="49.99999999999994" as="sourcePoint" />
            <mxPoint x="1039.9999999999995" y="49.99999999999994" as="targetPoint" />
          </mxGeometry>
        </mxCell>
        <mxCell id="J9gdxeYjHLM6oxPjCNeX-103" value="&lt;div&gt;КОНЦЕВИК ДВЕРИ&lt;/div&gt;&lt;div&gt;ГЕРКОН&lt;br&gt;&lt;/div&gt;" style="text;html=1;strokeColor=none;fillColor=none;align=center;verticalAlign=middle;whiteSpace=wrap;rounded=0;" vertex="1" parent="1">
          <mxGeometry x="1040" y="10" width="120" height="80" as="geometry" />
        </mxCell>
        <mxCell id="J9gdxeYjHLM6oxPjCNeX-106" value="`" style="endArrow=classic;html=1;entryX=0;entryY=0.25;entryDx=0;entryDy=0;exitX=1;exitY=0.75;exitDx=0;exitDy=0;" edge="1" parent="1" source="J9gdxeYjHLM6oxPjCNeX-99" target="J9gdxeYjHLM6oxPjCNeX-44">
          <mxGeometry width="50" height="50" relative="1" as="geometry">
            <mxPoint x="540" y="170" as="sourcePoint" />
            <mxPoint x="709.9999999999995" y="169.99999999999994" as="targetPoint" />
          </mxGeometry>
        </mxCell>
        <mxCell id="J9gdxeYjHLM6oxPjCNeX-107" value="`" style="endArrow=classic;html=1;entryX=0;entryY=0.75;entryDx=0;entryDy=0;exitX=1.006;exitY=0.944;exitDx=0;exitDy=0;exitPerimeter=0;" edge="1" parent="1" source="J9gdxeYjHLM6oxPjCNeX-99" target="J9gdxeYjHLM6oxPjCNeX-44">
          <mxGeometry width="50" height="50" relative="1" as="geometry">
            <mxPoint x="529.9999999999995" y="220" as="sourcePoint" />
            <mxPoint x="729.9999999999995" y="220.55999999999995" as="targetPoint" />
          </mxGeometry>
        </mxCell>
        <mxCell id="J9gdxeYjHLM6oxPjCNeX-108" value="`" style="endArrow=classic;html=1;entryX=0;entryY=0.5;entryDx=0;entryDy=0;exitX=0.888;exitY=1.021;exitDx=0;exitDy=0;exitPerimeter=0;" edge="1" parent="1" source="J9gdxeYjHLM6oxPjCNeX-99" target="J9gdxeYjHLM6oxPjCNeX-77">
          <mxGeometry width="50" height="50" relative="1" as="geometry">
            <mxPoint x="511.1999999999998" y="299.40999999999997" as="sourcePoint" />
            <mxPoint x="749.9999999999995" y="299.42999999999995" as="targetPoint" />
            <Array as="points">
              <mxPoint x="498" y="300" />
            </Array>
          </mxGeometry>
        </mxCell>
        <mxCell id="J9gdxeYjHLM6oxPjCNeX-109" value="`" style="endArrow=classic;html=1;entryX=0;entryY=0.5;entryDx=0;entryDy=0;exitX=0.35;exitY=1;exitDx=0;exitDy=0;exitPerimeter=0;" edge="1" parent="1" source="J9gdxeYjHLM6oxPjCNeX-99" target="J9gdxeYjHLM6oxPjCNeX-68">
          <mxGeometry width="50" height="50" relative="1" as="geometry">
            <mxPoint x="129.99999999999983" y="409.99999999999994" as="sourcePoint" />
            <mxPoint x="368.79999999999956" y="410.0199999999999" as="targetPoint" />
            <Array as="points">
              <mxPoint x="390" y="400" />
            </Array>
          </mxGeometry>
        </mxCell>
        <mxCell id="J9gdxeYjHLM6oxPjCNeX-110" value="`" style="endArrow=classic;html=1;entryX=0;entryY=0.5;entryDx=0;entryDy=0;exitX=0.294;exitY=1.015;exitDx=0;exitDy=0;exitPerimeter=0;" edge="1" parent="1" source="J9gdxeYjHLM6oxPjCNeX-99" target="J9gdxeYjHLM6oxPjCNeX-64">
          <mxGeometry width="50" height="50" relative="1" as="geometry">
            <mxPoint x="99.99999999999982" y="529.9999999999999" as="sourcePoint" />
            <mxPoint x="338.79999999999956" y="530.0199999999999" as="targetPoint" />
            <Array as="points">
              <mxPoint x="379" y="490" />
            </Array>
          </mxGeometry>
        </mxCell>
        <mxCell id="J9gdxeYjHLM6oxPjCNeX-111" value="`" style="endArrow=classic;html=1;entryX=0;entryY=0.5;entryDx=0;entryDy=0;exitX=0.25;exitY=1;exitDx=0;exitDy=0;" edge="1" parent="1" source="J9gdxeYjHLM6oxPjCNeX-99" target="J9gdxeYjHLM6oxPjCNeX-60">
          <mxGeometry width="50" height="50" relative="1" as="geometry">
            <mxPoint x="239.99999999999983" y="579.4099999999999" as="sourcePoint" />
            <mxPoint x="478.79999999999956" y="579.4299999999998" as="targetPoint" />
            <Array as="points">
              <mxPoint x="370" y="580" />
            </Array>
          </mxGeometry>
        </mxCell>
        <mxCell id="J9gdxeYjHLM6oxPjCNeX-112" value="`" style="endArrow=classic;html=1;entryX=0;entryY=0.5;entryDx=0;entryDy=0;exitX=0.206;exitY=1.009;exitDx=0;exitDy=0;exitPerimeter=0;" edge="1" parent="1" source="J9gdxeYjHLM6oxPjCNeX-99" target="J9gdxeYjHLM6oxPjCNeX-56">
          <mxGeometry width="50" height="50" relative="1" as="geometry">
            <mxPoint x="281.1999999999998" y="669.4099999999999" as="sourcePoint" />
            <mxPoint x="519.9999999999995" y="669.4299999999998" as="targetPoint" />
            <Array as="points">
              <mxPoint x="361" y="670" />
            </Array>
          </mxGeometry>
        </mxCell>
        <mxCell id="J9gdxeYjHLM6oxPjCNeX-113" value="`" style="endArrow=classic;html=1;entryX=0;entryY=0.5;entryDx=0;entryDy=0;exitX=0.147;exitY=1.009;exitDx=0;exitDy=0;exitPerimeter=0;" edge="1" parent="1" source="J9gdxeYjHLM6oxPjCNeX-99" target="J9gdxeYjHLM6oxPjCNeX-1">
          <mxGeometry width="50" height="50" relative="1" as="geometry">
            <mxPoint x="499.99999999999983" y="759.4099999999999" as="sourcePoint" />
            <mxPoint x="738.7999999999995" y="759.4299999999998" as="targetPoint" />
            <Array as="points">
              <mxPoint x="349" y="760" />
            </Array>
          </mxGeometry>
        </mxCell>
        <mxCell id="J9gdxeYjHLM6oxPjCNeX-120" value="" style="endArrow=classic;html=1;exitX=1;exitY=0.5;exitDx=0;exitDy=0;entryX=0.006;entryY=0.926;entryDx=0;entryDy=0;entryPerimeter=0;" edge="1" parent="1" source="J9gdxeYjHLM6oxPjCNeX-43" target="J9gdxeYjHLM6oxPjCNeX-99">
          <mxGeometry relative="1" as="geometry">
            <mxPoint x="230" y="340" as="sourcePoint" />
            <mxPoint x="330" y="175" as="targetPoint" />
            <Array as="points">
              <mxPoint x="280" y="270" />
              <mxPoint x="280" y="215" />
            </Array>
          </mxGeometry>
        </mxCell>
        <mxCell id="J9gdxeYjHLM6oxPjCNeX-121" value="5V" style="edgeLabel;resizable=0;html=1;align=center;verticalAlign=middle;" connectable="0" vertex="1" parent="J9gdxeYjHLM6oxPjCNeX-120">
          <mxGeometry relative="1" as="geometry" />
        </mxCell>
        <mxCell id="J9gdxeYjHLM6oxPjCNeX-123" value="" style="endArrow=classic;html=1;exitX=0.25;exitY=1;exitDx=0;exitDy=0;entryX=0;entryY=0.75;entryDx=0;entryDy=0;" edge="1" parent="1" source="J9gdxeYjHLM6oxPjCNeX-43" target="J9gdxeYjHLM6oxPjCNeX-68">
          <mxGeometry relative="1" as="geometry">
            <mxPoint x="200" y="399.40999999999997" as="sourcePoint" />
            <mxPoint x="277.60000000000014" y="399.40999999999997" as="targetPoint" />
            <Array as="points">
              <mxPoint x="180" y="420" />
            </Array>
          </mxGeometry>
        </mxCell>
        <mxCell id="J9gdxeYjHLM6oxPjCNeX-124" value="12V" style="edgeLabel;resizable=0;html=1;align=center;verticalAlign=middle;" connectable="0" vertex="1" parent="J9gdxeYjHLM6oxPjCNeX-123">
          <mxGeometry relative="1" as="geometry" />
        </mxCell>
        <mxCell id="J9gdxeYjHLM6oxPjCNeX-125" value="" style="endArrow=classic;html=1;exitX=0.75;exitY=1;exitDx=0;exitDy=0;entryX=0;entryY=0.75;entryDx=0;entryDy=0;" edge="1" parent="1" source="J9gdxeYjHLM6oxPjCNeX-43" target="J9gdxeYjHLM6oxPjCNeX-77">
          <mxGeometry relative="1" as="geometry">
            <mxPoint x="560" y="320" as="sourcePoint" />
            <mxPoint x="637.6000000000001" y="320" as="targetPoint" />
            <Array as="points">
              <mxPoint x="220" y="320" />
            </Array>
          </mxGeometry>
        </mxCell>
        <mxCell id="J9gdxeYjHLM6oxPjCNeX-126" value="12V" style="edgeLabel;resizable=0;html=1;align=center;verticalAlign=middle;" connectable="0" vertex="1" parent="J9gdxeYjHLM6oxPjCNeX-125">
          <mxGeometry relative="1" as="geometry" />
        </mxCell>
        <mxCell id="J9gdxeYjHLM6oxPjCNeX-127" value="" style="endArrow=classic;html=1;exitX=0.5;exitY=1;exitDx=0;exitDy=0;entryX=0;entryY=0.25;entryDx=0;entryDy=0;" edge="1" parent="1" source="J9gdxeYjHLM6oxPjCNeX-43" target="J9gdxeYjHLM6oxPjCNeX-72">
          <mxGeometry relative="1" as="geometry">
            <mxPoint x="560" y="340" as="sourcePoint" />
            <mxPoint x="637.6000000000001" y="340" as="targetPoint" />
            <Array as="points">
              <mxPoint x="200" y="340" />
              <mxPoint x="680" y="340" />
              <mxPoint x="680" y="380" />
            </Array>
          </mxGeometry>
        </mxCell>
        <mxCell id="J9gdxeYjHLM6oxPjCNeX-128" value="12V" style="edgeLabel;resizable=0;html=1;align=center;verticalAlign=middle;" connectable="0" vertex="1" parent="J9gdxeYjHLM6oxPjCNeX-127">
          <mxGeometry relative="1" as="geometry" />
        </mxCell>
        <mxCell id="J9gdxeYjHLM6oxPjCNeX-129" value="" style="endArrow=classic;html=1;entryX=-0.03;entryY=0.404;entryDx=0;entryDy=0;exitX=1;exitY=0.5;exitDx=0;exitDy=0;entryPerimeter=0;" edge="1" parent="1" source="J9gdxeYjHLM6oxPjCNeX-77" target="J9gdxeYjHLM6oxPjCNeX-78">
          <mxGeometry relative="1" as="geometry">
            <mxPoint x="530" y="420" as="sourcePoint" />
            <mxPoint x="630" y="420" as="targetPoint" />
          </mxGeometry>
        </mxCell>
        <mxCell id="J9gdxeYjHLM6oxPjCNeX-130" value="ШИМ 0-12V" style="edgeLabel;resizable=0;html=1;align=center;verticalAlign=middle;" connectable="0" vertex="1" parent="J9gdxeYjHLM6oxPjCNeX-129">
          <mxGeometry relative="1" as="geometry" />
        </mxCell>
        <mxCell id="J9gdxeYjHLM6oxPjCNeX-132" value="" style="shape=flexArrow;endArrow=classic;html=1;entryX=0.5;entryY=0;entryDx=0;entryDy=0;" edge="1" parent="1" target="J9gdxeYjHLM6oxPjCNeX-37">
          <mxGeometry width="50" height="50" relative="1" as="geometry">
            <mxPoint x="80" y="60" as="sourcePoint" />
            <mxPoint x="150" y="45" as="targetPoint" />
          </mxGeometry>
        </mxCell>
        <mxCell id="J9gdxeYjHLM6oxPjCNeX-133" value="" style="endArrow=classic;html=1;entryX=0;entryY=0.5;entryDx=0;entryDy=0;exitX=1;exitY=0.5;exitDx=0;exitDy=0;" edge="1" parent="1" source="J9gdxeYjHLM6oxPjCNeX-37" target="J9gdxeYjHLM6oxPjCNeX-43">
          <mxGeometry width="50" height="50" relative="1" as="geometry">
            <mxPoint x="130" y="580" as="sourcePoint" />
            <mxPoint x="630" y="610" as="targetPoint" />
          </mxGeometry>
        </mxCell>
        <mxCell id="J9gdxeYjHLM6oxPjCNeX-134" value="" style="endArrow=classic;html=1;entryX=0;entryY=0.75;entryDx=0;entryDy=0;exitX=0.396;exitY=1.029;exitDx=0;exitDy=0;exitPerimeter=0;" edge="1" parent="1" source="J9gdxeYjHLM6oxPjCNeX-37" target="J9gdxeYjHLM6oxPjCNeX-56">
          <mxGeometry relative="1" as="geometry">
            <mxPoint x="90" y="670" as="sourcePoint" />
            <mxPoint x="240" y="489.40999999999997" as="targetPoint" />
            <Array as="points">
              <mxPoint x="72" y="690" />
            </Array>
          </mxGeometry>
        </mxCell>
        <mxCell id="J9gdxeYjHLM6oxPjCNeX-135" value="220V" style="edgeLabel;resizable=0;html=1;align=center;verticalAlign=middle;" connectable="0" vertex="1" parent="J9gdxeYjHLM6oxPjCNeX-134">
          <mxGeometry relative="1" as="geometry" />
        </mxCell>
        <mxCell id="J9gdxeYjHLM6oxPjCNeX-137" value="" style="endArrow=classic;html=1;entryX=0;entryY=0.75;entryDx=0;entryDy=0;exitX=0.9;exitY=1;exitDx=0;exitDy=0;exitPerimeter=0;" edge="1" parent="1" source="J9gdxeYjHLM6oxPjCNeX-37" target="J9gdxeYjHLM6oxPjCNeX-64">
          <mxGeometry relative="1" as="geometry">
            <mxPoint x="120" y="240" as="sourcePoint" />
            <mxPoint x="250" y="499.40999999999985" as="targetPoint" />
            <Array as="points">
              <mxPoint x="112" y="510" />
            </Array>
          </mxGeometry>
        </mxCell>
        <mxCell id="J9gdxeYjHLM6oxPjCNeX-138" value="220V" style="edgeLabel;resizable=0;html=1;align=center;verticalAlign=middle;" connectable="0" vertex="1" parent="J9gdxeYjHLM6oxPjCNeX-137">
          <mxGeometry relative="1" as="geometry" />
        </mxCell>
        <mxCell id="J9gdxeYjHLM6oxPjCNeX-139" value="" style="endArrow=classic;html=1;entryX=0;entryY=0.75;entryDx=0;entryDy=0;exitX=0.632;exitY=0.989;exitDx=0;exitDy=0;exitPerimeter=0;" edge="1" parent="1" source="J9gdxeYjHLM6oxPjCNeX-37" target="J9gdxeYjHLM6oxPjCNeX-60">
          <mxGeometry relative="1" as="geometry">
            <mxPoint x="90" y="250" as="sourcePoint" />
            <mxPoint x="540" y="613.8199999999998" as="targetPoint" />
            <Array as="points">
              <mxPoint x="90" y="600" />
            </Array>
          </mxGeometry>
        </mxCell>
        <mxCell id="J9gdxeYjHLM6oxPjCNeX-140" value="220V" style="edgeLabel;resizable=0;html=1;align=center;verticalAlign=middle;" connectable="0" vertex="1" parent="J9gdxeYjHLM6oxPjCNeX-139">
          <mxGeometry relative="1" as="geometry" />
        </mxCell>
        <mxCell id="J9gdxeYjHLM6oxPjCNeX-141" value="" style="endArrow=classic;html=1;entryX=0;entryY=0.75;entryDx=0;entryDy=0;exitX=0.161;exitY=1.044;exitDx=0;exitDy=0;exitPerimeter=0;" edge="1" parent="1" source="J9gdxeYjHLM6oxPjCNeX-37" target="J9gdxeYjHLM6oxPjCNeX-1">
          <mxGeometry relative="1" as="geometry">
            <mxPoint x="170" y="519.4099999999999" as="sourcePoint" />
            <mxPoint x="270" y="519.4099999999999" as="targetPoint" />
            <Array as="points">
              <mxPoint x="53" y="780" />
            </Array>
          </mxGeometry>
        </mxCell>
        <mxCell id="J9gdxeYjHLM6oxPjCNeX-142" value="220V" style="edgeLabel;resizable=0;html=1;align=center;verticalAlign=middle;" connectable="0" vertex="1" parent="J9gdxeYjHLM6oxPjCNeX-141">
          <mxGeometry relative="1" as="geometry" />
        </mxCell>
        <mxCell id="J9gdxeYjHLM6oxPjCNeX-144" value="" style="endArrow=none;dashed=1;html=1;startArrow=none;" edge="1" parent="1">
          <mxGeometry width="50" height="50" relative="1" as="geometry">
            <mxPoint x="570" y="60" as="sourcePoint" />
            <mxPoint x="1010" y="60" as="targetPoint" />
          </mxGeometry>
        </mxCell>
        <mxCell id="J9gdxeYjHLM6oxPjCNeX-145" value="" style="endArrow=none;dashed=1;html=1;" edge="1" parent="1">
          <mxGeometry width="50" height="50" relative="1" as="geometry">
            <mxPoint x="570" y="40" as="sourcePoint" />
            <mxPoint x="1009.9999999999995" y="40" as="targetPoint" />
          </mxGeometry>
        </mxCell>
        <mxCell id="J9gdxeYjHLM6oxPjCNeX-146" value="" style="endArrow=none;dashed=1;html=1;" edge="1" parent="1">
          <mxGeometry width="50" height="50" relative="1" as="geometry">
            <mxPoint x="570" y="118.82" as="sourcePoint" />
            <mxPoint x="1009.9999999999995" y="118.82" as="targetPoint" />
          </mxGeometry>
        </mxCell>
        <mxCell id="J9gdxeYjHLM6oxPjCNeX-147" value="" style="endArrow=none;dashed=1;html=1;" edge="1" parent="1">
          <mxGeometry width="50" height="50" relative="1" as="geometry">
            <mxPoint x="570" y="140" as="sourcePoint" />
            <mxPoint x="1009.9999999999995" y="140" as="targetPoint" />
          </mxGeometry>
        </mxCell>
        <mxCell id="J9gdxeYjHLM6oxPjCNeX-148" value="" style="endArrow=none;dashed=1;html=1;" edge="1" parent="1">
          <mxGeometry width="50" height="50" relative="1" as="geometry">
            <mxPoint x="880" y="290" as="sourcePoint" />
            <mxPoint x="1010" y="290" as="targetPoint" />
          </mxGeometry>
        </mxCell>
        <mxCell id="J9gdxeYjHLM6oxPjCNeX-149" value="" style="endArrow=none;dashed=1;html=1;" edge="1" parent="1">
          <mxGeometry width="50" height="50" relative="1" as="geometry">
            <mxPoint x="879.9999999999995" y="309.41" as="sourcePoint" />
            <mxPoint x="1009.9999999999995" y="309.41" as="targetPoint" />
          </mxGeometry>
        </mxCell>
        <mxCell id="J9gdxeYjHLM6oxPjCNeX-150" value="" style="ellipse;whiteSpace=wrap;html=1;" vertex="1" parent="1">
          <mxGeometry x="870" y="170" width="10" height="20" as="geometry" />
        </mxCell>
        <mxCell id="J9gdxeYjHLM6oxPjCNeX-152" value="" style="endArrow=none;dashed=1;html=1;" edge="1" parent="1">
          <mxGeometry width="50" height="50" relative="1" as="geometry">
            <mxPoint x="570" y="60" as="sourcePoint" />
            <mxPoint x="568.5355339059329" y="57.071067811865646" as="targetPoint" />
          </mxGeometry>
        </mxCell>
        <mxCell id="J9gdxeYjHLM6oxPjCNeX-153" value="" style="ellipse;whiteSpace=wrap;html=1;" vertex="1" parent="1">
          <mxGeometry x="560" y="40" width="10" height="20" as="geometry" />
        </mxCell>
        <mxCell id="J9gdxeYjHLM6oxPjCNeX-154" value="" style="ellipse;whiteSpace=wrap;html=1;" vertex="1" parent="1">
          <mxGeometry x="1010" y="40" width="10" height="20" as="geometry" />
        </mxCell>
        <mxCell id="J9gdxeYjHLM6oxPjCNeX-155" value="" style="ellipse;whiteSpace=wrap;html=1;" vertex="1" parent="1">
          <mxGeometry x="870" y="290" width="10" height="20" as="geometry" />
        </mxCell>
        <mxCell id="J9gdxeYjHLM6oxPjCNeX-156" value="" style="ellipse;whiteSpace=wrap;html=1;" vertex="1" parent="1">
          <mxGeometry x="1010" y="290" width="10" height="20" as="geometry" />
        </mxCell>
        <mxCell id="J9gdxeYjHLM6oxPjCNeX-157" value="" style="ellipse;whiteSpace=wrap;html=1;" vertex="1" parent="1">
          <mxGeometry x="1010" y="120" width="10" height="20" as="geometry" />
        </mxCell>
        <mxCell id="J9gdxeYjHLM6oxPjCNeX-158" value="" style="ellipse;whiteSpace=wrap;html=1;" vertex="1" parent="1">
          <mxGeometry x="560" y="120" width="10" height="20" as="geometry" />
        </mxCell>
        <mxCell id="J9gdxeYjHLM6oxPjCNeX-159" value="" style="endArrow=none;html=1;entryX=0;entryY=0.5;entryDx=0;entryDy=0;" edge="1" parent="1" target="J9gdxeYjHLM6oxPjCNeX-158">
          <mxGeometry width="50" height="50" relative="1" as="geometry">
            <mxPoint x="522" y="130" as="sourcePoint" />
            <mxPoint x="1040" y="130" as="targetPoint" />
          </mxGeometry>
        </mxCell>
        <mxCell id="J9gdxeYjHLM6oxPjCNeX-160" value="" style="endArrow=none;dashed=1;html=1;" edge="1" parent="1">
          <mxGeometry width="50" height="50" relative="1" as="geometry">
            <mxPoint x="880" y="190" as="sourcePoint" />
            <mxPoint x="1010" y="190" as="targetPoint" />
          </mxGeometry>
        </mxCell>
        <mxCell id="J9gdxeYjHLM6oxPjCNeX-161" value="" style="endArrow=none;dashed=1;html=1;" edge="1" parent="1">
          <mxGeometry width="50" height="50" relative="1" as="geometry">
            <mxPoint x="880" y="170" as="sourcePoint" />
            <mxPoint x="1010" y="170" as="targetPoint" />
          </mxGeometry>
        </mxCell>
        <mxCell id="J9gdxeYjHLM6oxPjCNeX-162" value="" style="ellipse;whiteSpace=wrap;html=1;" vertex="1" parent="1">
          <mxGeometry x="1010" y="170" width="10" height="20" as="geometry" />
        </mxCell>
        <mxCell id="J9gdxeYjHLM6oxPjCNeX-163" value="&lt;div style=&quot;font-size: 10px&quot;&gt;&lt;font style=&quot;font-size: 10px&quot;&gt;КОНЦЕВИК &quot;ОТКЛЮЧИ ЩУП!&quot;&lt;/font&gt;&lt;/div&gt;" style="text;html=1;align=center;verticalAlign=middle;resizable=0;points=[];autosize=1;strokeColor=none;" vertex="1" parent="1">
          <mxGeometry x="560" y="200" width="160" height="20" as="geometry" />
        </mxCell>
        <mxCell id="J9gdxeYjHLM6oxPjCNeX-164" value="&lt;div&gt;индикатор&lt;/div&gt;&lt;div&gt;В.В.&lt;/div&gt;" style="text;html=1;align=center;verticalAlign=middle;resizable=0;points=[];autosize=1;strokeColor=none;" vertex="1" parent="1">
          <mxGeometry x="590" y="365" width="70" height="30" as="geometry" />
        </mxCell>
        <mxCell id="J9gdxeYjHLM6oxPjCNeX-165" value="&lt;div&gt;индикатор&lt;/div&gt;&lt;div&gt;тэн-1&lt;/div&gt;" style="text;html=1;align=center;verticalAlign=middle;resizable=0;points=[];autosize=1;strokeColor=none;" vertex="1" parent="1">
          <mxGeometry x="680" y="455" width="70" height="30" as="geometry" />
        </mxCell>
        <mxCell id="J9gdxeYjHLM6oxPjCNeX-166" value="&lt;div&gt;индикатор&lt;/div&gt;&lt;div&gt;тэн-2&lt;/div&gt;" style="text;html=1;align=center;verticalAlign=middle;resizable=0;points=[];autosize=1;strokeColor=none;" vertex="1" parent="1">
          <mxGeometry x="765" y="545" width="70" height="30" as="geometry" />
        </mxCell>
        <mxCell id="J9gdxeYjHLM6oxPjCNeX-167" value="&lt;div&gt;индикатор&lt;/div&gt;&lt;div&gt;парогенератора&lt;br&gt;&lt;/div&gt;" style="text;html=1;align=center;verticalAlign=middle;resizable=0;points=[];autosize=1;strokeColor=none;" vertex="1" parent="1">
          <mxGeometry x="860" y="630" width="100" height="30" as="geometry" />
        </mxCell>
        <mxCell id="J9gdxeYjHLM6oxPjCNeX-168" value="&lt;div&gt;индикатор&lt;/div&gt;&lt;div&gt;ковекторов&lt;br&gt;&lt;/div&gt;" style="text;html=1;align=center;verticalAlign=middle;resizable=0;points=[];autosize=1;strokeColor=none;" vertex="1" parent="1">
          <mxGeometry x="940" y="720" width="80" height="30" as="geometry" />
        </mxCell>
        <mxCell id="J9gdxeYjHLM6oxPjCNeX-170" value="" style="endArrow=classic;html=1;entryX=-0.018;entryY=0.209;entryDx=0;entryDy=0;entryPerimeter=0;" edge="1" parent="1" target="J9gdxeYjHLM6oxPjCNeX-99">
          <mxGeometry width="50" height="50" relative="1" as="geometry">
            <mxPoint x="242" y="72" as="sourcePoint" />
            <mxPoint x="290" y="230" as="targetPoint" />
          </mxGeometry>
        </mxCell>
        <mxCell id="J9gdxeYjHLM6oxPjCNeX-171" value="ЭНКОДЕР" style="ellipse;whiteSpace=wrap;html=1;aspect=fixed;" vertex="1" parent="1">
          <mxGeometry x="160" y="30" width="80" height="80" as="geometry" />
        </mxCell>
        <mxCell id="J9gdxeYjHLM6oxPjCNeX-172" value="&lt;span style=&quot;font-family: &amp;#34;arial&amp;#34;&quot;&gt;TFT дисплей 3.5&quot; 320х480 &lt;/span&gt;" style="whiteSpace=wrap;html=1;aspect=fixed;" vertex="1" parent="1">
          <mxGeometry x="160" y="130" width="80" height="80" as="geometry" />
        </mxCell>
        <mxCell id="J9gdxeYjHLM6oxPjCNeX-173" value="" style="endArrow=classic;html=1;" edge="1" parent="1">
          <mxGeometry width="50" height="50" relative="1" as="geometry">
            <mxPoint x="319" y="170" as="sourcePoint" />
            <mxPoint x="240" y="170" as="targetPoint" />
          </mxGeometry>
        </mxCell>
      </root>
    </mxGraphModel>
  </diagram>
</mxfile>
